<?xml version="1.0" standalone="no"?>
<!DOCTYPE svg PUBLIC "-//W3C//DTD SVG 20010904//EN"
 "http://www.w3.org/TR/2001/REC-SVG-20010904/DTD/svg10.dtd">
<svg version="1.0" xmlns="http://www.w3.org/2000/svg"
 width="1024.000000pt" height="1024.000000pt" viewBox="0 0 1024.000000 1024.000000"
 preserveAspectRatio="xMidYMid meet">

<g transform="translate(0.000000,1024.000000) scale(0.100000,-0.100000)"
fill="#000000" stroke="none">
<path d="M4924 8950 c-805 -41 -1572 -331 -2208 -837 -156 -124 -465 -434
-587 -588 -450 -567 -718 -1198 -814 -1915 -19 -148 -34 -479 -26 -595 l6 -90
13 139 c71 767 385 1521 880 2111 99 118 354 373 462 461 592 487 1225 762
1990 866 142 19 210 22 480 22 270 0 339 -3 481 -22 309 -42 586 -109 852
-207 l128 -48 -24 -26 c-13 -14 -525 -611 -1137 -1326 -612 -715 -1122 -1310
-1133 -1322 l-19 -22 233 -117 c209 -104 235 -115 244 -99 92 155 274 238 450
206 263 -48 412 -308 321 -560 -9 -24 -14 -46 -12 -50 3 -3 108 -58 235 -121
127 -63 231 -117 231 -121 0 -3 -546 -643 -1214 -1422 -668 -780 -1217 -1425
-1220 -1435 -12 -39 -36 -154 -36 -170 0 -12 26 -28 81 -52 44 -19 81 -35 83
-35 2 0 522 605 1156 1345 l1154 1345 427 1920 427 1920 -59 -65 c-32 -36 -59
-60 -59 -55 1 17 38 176 43 181 12 12 279 -135 461 -253 241 -157 404 -289
612 -497 169 -170 263 -279 386 -447 403 -552 657 -1226 720 -1906 l13 -138 6
90 c8 116 -7 447 -27 595 -100 751 -392 1414 -875 1990 -125 149 -372 390
-525 512 -735 588 -1656 885 -2600 838z"/>
</g>
</svg>
